<svg width="65" height="49" viewBox="0 0 65 49" fill="none" xmlns="http://www.w3.org/2000/svg">
<g clip-path="url(#clip0_2_135)">
<path d="M55.1093 4.13827C55.0913 4.10397 55.0614 4.0773 55.025 4.06323C50.811 2.14884 46.3637 0.782989 41.7944 -0.000159522C41.7529 -0.00768627 41.71 -0.00209706 41.6719 0.0158159C41.6337 0.0337289 41.6023 0.0630569 41.582 0.0996429C40.9762 1.18883 40.4264 2.3076 39.9348 3.45165C35.0098 2.71169 30.0001 2.71169 25.0751 3.45165C24.5796 2.30662 24.0208 1.18935 23.4014 0.104896C23.3811 0.0680224 23.3498 0.0381889 23.3118 0.0194075C23.2738 0.000626104 23.231 -0.00620236 23.1889 -0.000159522C18.6192 0.780461 14.1717 2.14589 9.95829 4.06173C9.9219 4.07697 9.89135 4.10325 9.87103 4.13676C1.4416 16.5836 -0.864172 28.7317 0.268605 40.726C0.275536 40.785 0.305812 40.839 0.352824 40.8761C5.91276 44.9139 11.2982 47.3655 16.5835 48.9901C16.6246 49.002 16.6685 49.0013 16.7092 48.9878C16.7499 48.9744 16.7854 48.949 16.8111 48.915C18.0647 47.2278 19.1752 45.4411 20.1313 43.573C20.1444 43.5474 20.1519 43.5193 20.1533 43.4907C20.1547 43.462 20.1499 43.4333 20.1393 43.4066C20.1287 43.3799 20.1125 43.3557 20.0918 43.3356C20.071 43.3155 20.0462 43.3 20.019 43.2901C18.2671 42.628 16.5711 41.8296 14.9469 40.9023C14.9174 40.8852 14.8926 40.8611 14.8747 40.8322C14.8568 40.8033 14.8464 40.7705 14.8444 40.7366C14.8424 40.7028 14.8488 40.669 14.8631 40.6383C14.8774 40.6075 14.8991 40.5807 14.9264 40.5602C15.2671 40.308 15.6093 40.0454 15.9332 39.7797C15.9622 39.7563 15.9972 39.7413 16.0343 39.7364C16.0715 39.7315 16.1092 39.7369 16.1434 39.752C26.7807 44.5545 38.2982 44.5545 48.8096 39.752C48.8439 39.7357 48.8822 39.7294 48.9199 39.734C48.9577 39.7385 48.9934 39.7536 49.0228 39.7775C49.3483 40.0424 49.6889 40.308 50.0319 40.5602C50.0593 40.5804 50.0812 40.607 50.0958 40.6377C50.1104 40.6683 50.1171 40.702 50.1153 40.7358C50.1136 40.7696 50.1035 40.8025 50.0859 40.8316C50.0683 40.8606 50.0438 40.8849 50.0144 40.9023C48.394 41.8378 46.6968 42.6365 44.9408 43.2901C44.9136 43.3004 44.8889 43.3162 44.8684 43.3366C44.8478 43.357 44.8318 43.3814 44.8214 43.4084C44.811 43.4353 44.8065 43.464 44.8081 43.4928C44.8097 43.5215 44.8175 43.5496 44.8308 43.5752C45.8035 45.4327 46.9124 47.2171 48.1487 48.9143C48.1739 48.9489 48.2094 48.9747 48.2503 48.9882C48.2911 49.0017 48.3352 49.0021 48.3763 48.9893C53.6874 47.3647 59.0744 44.9132 64.6328 40.8753C64.657 40.8578 64.6772 40.8354 64.6918 40.8095C64.7065 40.7836 64.7153 40.7548 64.7178 40.7252C66.0751 26.864 62.4499 14.8164 55.1093 4.13827ZM21.7208 33.4232C18.5182 33.4232 15.8786 30.5146 15.8786 26.9435C15.8786 23.3724 18.4666 20.4638 21.7208 20.4638C25 20.4638 27.6138 23.3979 27.563 26.9435C27.5622 30.5146 24.975 33.4232 21.7208 33.4232ZM43.3187 33.4232C40.1169 33.4232 37.4765 30.5146 37.4765 26.9435C37.4765 23.3724 40.0645 20.4638 43.3187 20.4638C46.5986 20.4638 49.2117 23.3979 49.1609 26.9435C49.1601 30.5146 46.5986 33.4232 43.3187 33.4232Z" fill="white"/>
</g>
<defs>
<clipPath id="clip0_2_135">
<rect width="65" height="49" fill="white"/>
</clipPath>
</defs>
</svg>
