<svg width="472" height="142" viewBox="0 0 472 142" fill="none" xmlns="http://www.w3.org/2000/svg">
<g clip-path="url(#clip0_2_3)">
<path d="M113.133 140.778C109.416 140.788 105.754 139.889 102.467 138.16C102.1 137.967 101.727 137.755 101.333 137.496C97.7368 139.638 93.6234 140.766 89.4333 140.758H1.66669L19.14 84.1078C20.9872 78.0723 24.7253 72.7849 29.8067 69.0202C30.56 68.4621 31.3534 67.9307 32.1734 67.4324C30.599 64.7504 29.5828 61.7799 29.1853 58.6981C28.7879 55.6163 29.0174 52.4862 29.86 49.4947L29.98 49.0961L38.2734 22.1962C40.1395 16.13 43.9079 10.8197 49.0254 7.04486C54.1428 3.26998 60.3398 1.22931 66.7067 1.22241H470.34L427.407 140.778H113.133Z" fill="#010101"/>
<path d="M468.667 2.45148L426.493 139.549H113.16C109.641 139.561 106.173 138.712 103.06 137.077C102.467 136.765 101.907 136.413 101.353 136.074C97.8069 138.354 93.6736 139.56 89.4533 139.549H3.33333L20.32 84.4865C22.0876 78.7007 25.6695 73.6317 30.54 70.0234C31.6002 69.2324 32.7139 68.5154 33.8733 67.8775C32.1264 65.2488 30.9689 62.2754 30.4799 59.1603C29.991 56.0452 30.182 52.8617 31.04 49.8269L31.1533 49.4416L39.4467 22.5882C41.2329 16.7683 44.8442 11.6723 49.7504 8.04807C54.6567 4.42387 60.5995 2.46237 66.7067 2.45148H468.667ZM472 0H66.7067C60.0798 0.00625334 53.6294 2.12907 48.302 6.05693C42.9747 9.98478 39.051 15.5108 37.1067 21.8242L28.8 48.7373L28.6667 49.1625C26.987 55.1307 27.6545 61.5126 30.5333 67.0072C30.0267 67.3394 29.54 67.6716 29.0667 68.037C23.7886 71.9621 19.9104 77.4683 18 83.749L0.98 138.851L0 142H89.4267C93.5927 142.008 97.6915 140.953 101.333 138.937L101.907 139.243C105.37 141.066 109.23 142.012 113.147 142H428.313L428.847 140.266L471.027 3.16899L472 0Z" fill="white"/>
<path d="M127.62 22.9204C127.156 24.6875 126.076 26.2324 124.573 27.2786C123.077 28.3437 121.279 28.9067 119.44 28.8863H67.88C66.9573 28.8707 66.0576 29.1735 65.3333 29.7434C64.6092 30.3021 64.0647 31.0595 63.7667 31.9224L58 50.9762H119.073L116.793 58.1779C116.319 59.9544 115.242 61.5128 113.747 62.5892C112.261 63.6866 110.456 64.2698 108.607 64.2501H52.0867C50.7301 64.2582 49.3927 63.9318 48.1933 63.3001C47.0262 62.7035 46.0149 61.8436 45.24 60.7888C44.4561 59.7174 43.9285 58.4816 43.6974 57.1759C43.4663 55.8701 43.5379 54.529 43.9067 53.255L52.1867 26.4216C53.1356 23.2934 55.0685 20.5521 57.7 18.6021C60.2984 16.637 63.4782 15.5878 66.74 15.6191H129.907L127.62 22.9204Z" fill="white"/>
<path d="M210.073 15.6191L195.133 64.2501H181.8L187.247 46.5051H139.487L134.067 64.2501H120.733L135.667 15.6191H149L143.58 33.2512H191.333L196.753 15.6191H210.073Z" fill="white"/>
<path d="M212.593 26.4216C213.074 24.8291 213.813 23.3256 214.78 21.9704C215.709 20.6684 216.833 19.5166 218.113 18.5556C219.396 17.6002 220.829 16.8638 222.353 16.3765C223.903 15.8721 225.523 15.6165 227.153 15.6191H290.32L284.127 35.809C283.185 38.9281 281.25 41.6568 278.613 43.582C276.003 45.5171 272.827 46.5442 269.573 46.5051H219.727L218.393 50.963H279.467L277.187 58.1646C276.72 59.9447 275.642 61.5055 274.14 62.576C272.654 63.6733 270.849 64.2566 269 64.2369H212.5C211.141 64.2457 209.801 63.9194 208.6 63.2868C207.434 62.6918 206.424 61.8315 205.653 60.7756C204.888 59.7346 204.366 58.536 204.127 57.2677C203.877 55.929 203.943 54.5506 204.32 53.2417L212.593 26.4216ZM272.527 30.029C272.589 29.902 272.617 29.761 272.607 29.62C272.598 29.479 272.552 29.3429 272.473 29.2252C272.394 29.1125 272.286 29.0221 272.161 28.9627C272.036 28.9034 271.898 28.8771 271.76 28.8863H225.147L223.813 33.2512H269.38C270.003 33.3085 270.627 33.1379 271.133 32.7712C271.64 32.4045 271.995 31.8667 272.133 31.2581L272.527 30.029Z" fill="white"/>
<path d="M292.78 26.4216C293.26 24.8276 294.001 23.3236 294.973 21.9704C295.9 20.6666 297.024 19.5146 298.307 18.5556C299.59 17.6015 301.023 16.8652 302.547 16.3765C304.096 15.8721 305.717 15.6165 307.347 15.6191H370.513L364.313 35.809C363.372 38.9281 361.437 41.6568 358.8 43.582C356.19 45.518 353.014 46.5452 349.76 46.5051H299.913L298.58 50.963H359.653L357.373 58.1646C356.906 59.9447 355.828 61.5055 354.327 62.576C352.841 63.6733 351.036 64.2566 349.187 64.2369H292.667C291.333 64.2346 290.019 63.9202 288.83 63.319C287.64 62.7178 286.609 61.8466 285.82 60.7756C285.055 59.7346 284.533 58.536 284.293 57.2677C284.043 55.929 284.109 54.5506 284.487 53.2417L292.78 26.4216ZM352.713 30.029C352.774 29.9031 352.802 29.7639 352.793 29.6244C352.785 29.485 352.742 29.3498 352.667 29.2318C352.586 29.12 352.478 29.0304 352.354 28.9711C352.229 28.9119 352.091 28.885 351.953 28.893H305.333L304 33.2578H349.567C350.191 33.318 350.815 33.1486 351.322 32.7814C351.83 32.4142 352.184 31.8747 352.32 31.2647L352.713 30.029Z" fill="white"/>
<path d="M450.713 15.6191L443.673 38.5328C443.017 40.8715 441.571 42.913 439.58 44.3127C437.594 45.7584 435.193 46.5272 432.733 46.5051L417.4 46.5981L437.567 64.2368H417.7L398.3 46.5981H380.127L374.707 64.2368H361.373L370.887 33.3309L432 33.2512L433.333 28.8863H372.233L374.42 21.6847C374.957 19.937 376.04 18.406 377.512 17.3148C378.983 16.2237 380.766 15.6296 382.6 15.6191H450.713Z" fill="white"/>
<path d="M113.26 88.3597C114.215 85.2215 116.145 82.4669 118.773 80.4937C120.053 79.5384 121.484 78.802 123.007 78.3146C124.558 77.8097 126.181 77.5541 127.813 77.5572H190.973L184.793 97.7471C183.852 100.868 181.914 103.597 179.273 105.52C176.667 107.461 173.493 108.493 170.24 108.457H120.393L119.06 112.914H180.133L177.847 120.116C177.38 121.896 176.302 123.457 174.8 124.527C173.317 125.625 171.514 126.208 169.667 126.188H113.167C111.806 126.196 110.464 125.87 109.26 125.238C108.095 124.642 107.086 123.782 106.313 122.727C105.525 121.658 104.995 120.422 104.764 119.115C104.533 117.809 104.607 116.467 104.98 115.193L113.26 88.3597ZM173.187 91.9672C173.252 91.8413 173.282 91.7003 173.274 91.5589C173.266 91.4174 173.219 91.2808 173.14 91.1633C173.059 91.0515 172.952 90.9618 172.827 90.9026C172.702 90.8434 172.565 90.8165 172.427 90.8245H125.813L124.48 95.1827H170.04C170.665 95.2431 171.29 95.0738 171.799 94.7068C172.307 94.3397 172.663 93.8001 172.8 93.1896L173.187 91.9672Z" fill="white"/>
<path d="M271.2 77.5505L259.4 116.13C258.511 119.054 256.696 121.614 254.227 123.425C251.757 125.237 248.766 126.204 245.7 126.182H181.873L188.247 105.321C189.14 102.399 190.956 99.8433 193.424 98.0333C195.893 96.2233 198.882 95.2561 201.947 95.2756H252.46L253.793 90.8178H192.72L194.907 83.6161C195.444 81.8684 196.527 80.3374 197.998 79.2463C199.47 78.1552 201.253 77.5611 203.087 77.5505H271.2ZM248.367 108.543H200.613L199.28 112.908H246C246.299 112.936 246.598 112.856 246.842 112.683C247.087 112.509 247.261 112.255 247.333 111.964L248.367 108.543Z" fill="white"/>
<path d="M351.333 77.5505L344.293 100.491C343.64 102.829 342.197 104.871 340.207 106.271C338.211 107.716 335.8 108.481 333.333 108.45L318 108.543L338.167 126.182H318.327L298.92 108.543H280.753L275.333 126.182H262L271.507 95.2756L332.58 95.176L333.913 90.8178H272.853L275.047 83.6161C275.584 81.8684 276.667 80.3374 278.138 79.2463C279.61 78.1552 281.393 77.5611 283.227 77.5505H351.333Z" fill="white"/>
<path d="M411.08 77.5506C413.533 77.5137 415.956 78.0989 418.12 79.2514C420.166 80.3367 421.946 81.8589 423.333 83.7092C424.71 85.5644 425.653 87.7025 426.093 89.9675C426.565 92.3653 426.418 94.8432 425.667 97.1691L416.667 126.182H403.333L412.56 96.4117C412.767 95.7697 412.818 95.0882 412.711 94.4226C412.604 93.7569 412.34 93.1259 411.942 92.5808C411.544 92.0358 411.022 91.592 410.419 91.2857C409.817 90.9794 409.15 90.8191 408.473 90.8178H366.467L355.62 126.182H342.287L357.22 77.5506H411.08Z" fill="white"/>
<path d="M48.6667 107.022L48.2133 108.43H72.6L73.4466 105.773H50.28C49.9135 105.786 49.5605 105.913 49.271 106.137C48.9814 106.362 48.77 106.671 48.6667 107.022Z" fill="#FAB627"/>
<path d="M47.6 77.5506C44.3399 77.5167 41.1614 78.5663 38.5667 80.5336C35.9301 82.483 33.9944 85.2274 33.0467 88.3597L21.38 126.188H89.46C91.307 126.207 93.1096 125.624 94.5933 124.527C96.0889 123.451 97.1652 121.893 97.64 120.116L110.767 77.5572L47.6 77.5506ZM89.7267 102.238C89.4083 103.271 88.7641 104.174 87.8898 104.813C87.0155 105.452 85.9576 105.793 84.8733 105.786H81.3333L80.4867 108.443H87.8667L86.5333 112.715C86.2255 113.758 85.5856 114.674 84.7102 115.323C83.8348 115.973 82.7713 116.321 81.68 116.316H47.06C45.9997 116.321 44.953 116.078 44.0046 115.605C43.0563 115.132 42.233 114.444 41.6013 113.595C40.9697 112.746 40.5475 111.761 40.3689 110.72C40.1903 109.678 40.2603 108.609 40.5733 107.6L41.7 103.886C42.2196 102.157 43.2852 100.641 44.7386 99.5634C46.192 98.4862 47.9554 97.9051 49.7667 97.9065H51.46L52.7933 93.4088C53.312 91.6791 54.3774 90.1626 55.831 89.0852C57.2845 88.0077 59.0484 87.4271 60.86 87.4296H86.86L85.5267 91.7612C85.2062 92.7924 84.5612 93.6934 83.6872 94.331C82.8132 94.9687 81.7565 95.3092 80.6733 95.3023H61.34C60.9789 95.3085 60.6285 95.4254 60.3363 95.637C60.0441 95.8485 59.8243 96.1445 59.7067 96.4848L59.3133 97.8866H91.0333L89.7267 102.238Z" fill="#FAB627"/>
</g>
<defs>
<clipPath id="clip0_2_3">
<rect width="472" height="142" fill="white"/>
</clipPath>
</defs>
</svg>
