<svg width="60" height="49" viewBox="0 0 60 49" fill="none" xmlns="http://www.w3.org/2000/svg">
<g clip-path="url(#clip0_2_137)">
<path d="M60 5.79989C57.7533 6.80064 55.3701 7.45739 52.9298 7.74825C55.5007 6.20327 57.424 3.77061 58.3406 0.904617C55.9245 2.3454 53.2813 3.36097 50.525 3.90753C48.8362 2.09781 46.6451 0.840063 44.2361 0.297531C41.8271 -0.245001 39.3115 -0.0472609 37.0157 0.865085C34.7199 1.77743 32.75 3.36225 31.3618 5.41383C29.9735 7.46542 29.2309 9.88903 29.2304 12.3701C29.2299 13.3183 29.3367 14.2635 29.5488 15.1875C19.3219 14.6726 10.25 9.74534 4.17701 2.26098C2.60525 4.98518 2.12429 8.20852 2.83183 11.2762C3.53937 14.3439 5.38235 17.0259 7.9864 18.7773C6.03294 18.7148 4.12256 18.1845 2.41416 17.2304V17.3861C2.41363 20.2422 3.39642 23.0105 5.19574 25.2212C6.99507 27.432 9.50009 28.949 12.2857 29.5148C11.2284 29.8047 10.1374 29.9514 9.0415 29.9512C8.26454 29.9505 7.48931 29.8775 6.72577 29.733C7.5122 32.191 9.04335 34.3406 11.1051 35.8811C13.1669 37.4216 15.6561 38.2761 18.2248 38.325C13.8645 41.7635 8.47981 43.6276 2.93737 43.6173C1.95568 43.6179 0.974836 43.5598 0 43.4435C5.62852 47.0775 12.179 49.0064 18.8689 48.9999C41.5117 48.9999 53.8894 30.1504 53.8894 13.7999C53.8894 13.2666 53.8778 12.7332 53.8546 12.1999C56.2649 10.4501 58.3458 8.28294 60 5.79989Z" fill="white"/>
</g>
<defs>
<clipPath id="clip0_2_137">
<rect width="60" height="49" fill="white"/>
</clipPath>
</defs>
</svg>
